HIERARCHY
ROOT Hips
{
	OFFSET -3.958830 18.904000 13.208200
	CHANNELS 6 Xposition Yposition Zposition Zrotation Yrotation Xrotation 
	JOINT LHipJoint
	{
		OFFSET 0.000000 0.000000 0.000000
		CHANNELS 3 Zrotation Yrotation Xrotation
		JOINT LeftUpLeg
		{
			OFFSET 1.800000 -1.400000 0.085000
			CHANNELS 3 Zrotation Yrotation Xrotation
			JOINT LeftLeg
			{
				OFFSET 2.215000 -6.000000 0.000000
				CHANNELS 3 Zrotation Yrotation Xrotation
				JOINT LeftFoot
				{
					OFFSET 2.500000 -6.900000 0.000000
					CHANNELS 3 Zrotation Yrotation Xrotation
					JOINT LeftToeBase
					{
						OFFSET 0.200000 -0.500000 1.950000
						CHANNELS 3 Zrotation Yrotation Xrotation
						End Site
						{
							OFFSET 0.000000 0.000000 0.000000
						}
					}
				}
			}
		}
	}
	JOINT RHipJoint
	{
		OFFSET 0.000000 0.000000 0.000000
		CHANNELS 3 Zrotation Yrotation Xrotation
		JOINT RightUpLeg
		{
			OFFSET -1.800000 -1.400000 0.085000
			CHANNELS 3 Zrotation Yrotation Xrotation
			JOINT RightLeg
			{
				OFFSET -2.215000 -6.000000 0.000000
				CHANNELS 3 Zrotation Yrotation Xrotation
				JOINT RightFoot
				{
					OFFSET -2.500000 -6.900000 0.000000
					CHANNELS 3 Zrotation Yrotation Xrotation
					JOINT RightToeBase
					{
						OFFSET -0.200000 -0.500000 1.950000
						CHANNELS 3 Zrotation Yrotation Xrotation
						End Site
						{
							OFFSET 0.000000 0.000000 0.000000
						}
					}
				}
			}
		}
	}
	JOINT LowerBack
	{
		OFFSET 0.000000 0.000000 0.000000
		CHANNELS 3 Zrotation Yrotation Xrotation
		JOINT Spine
		{
			OFFSET -0.087000 1.940000 -0.288900
			CHANNELS 3 Zrotation Yrotation Xrotation
			JOINT Spine1
			{
				OFFSET 0.000000 1.950000 0.060000
				CHANNELS 3 Zrotation Yrotation Xrotation
				JOINT Neck
				{
					OFFSET 0.000000 0.000000 0.000000
					CHANNELS 3 Zrotation Yrotation Xrotation
					JOINT Neck1
					{
						OFFSET 0.000000 1.600000 0.340000
						CHANNELS 3 Zrotation Yrotation Xrotation
						JOINT Head
						{
							OFFSET 0.000000 1.667000 -0.240000
							CHANNELS 3 Zrotation Yrotation Xrotation
							End Site
							{
								OFFSET 0.000000 0.000000 0.000000
							}
						}
					}
				}
				JOINT LeftShoulder
				{
					OFFSET 0.000000 0.000000 0.000000
					CHANNELS 3 Zrotation Yrotation Xrotation
					JOINT LeftArm
					{
						OFFSET 2.700000 1.550000 -0.730000
						CHANNELS 3 Zrotation Yrotation Xrotation
						JOINT LeftForeArm
						{
							OFFSET 5.450000 0.000000 0.000000
							CHANNELS 3 Zrotation Yrotation Xrotation
							JOINT LeftHand
							{
								OFFSET 3.450000 0.000000 0.000000
								CHANNELS 3 Zrotation Yrotation Xrotation
								JOINT LeftHandIndex1
								{
									OFFSET 0.750000 0.000000 0.000000
									CHANNELS 3 Zrotation Yrotation Xrotation
									End Site
									{
										OFFSET 0.000000 0.000000 0.000000
									}
								}
							}
						}
					}
				}
				JOINT RightShoulder
				{
					OFFSET 0.000000 0.000000 0.000000
					CHANNELS 3 Zrotation Yrotation Xrotation
					JOINT RightArm
					{
						OFFSET -2.700000 1.550000 -0.730000
						CHANNELS 3 Zrotation Yrotation Xrotation
						JOINT RightForeArm
						{
							OFFSET -5.450000 0.000000 0.000000
							CHANNELS 3 Zrotation Yrotation Xrotation
							JOINT RightHand
							{
								OFFSET -3.450000 0.000000 0.000000
								CHANNELS 3 Zrotation Yrotation Xrotation
								JOINT RightHandIndex1
								{
									OFFSET -0.750000 0.000000 0.000000
									CHANNELS 3 Zrotation Yrotation Xrotation
									End Site
									{
										OFFSET 0.000000 0.000000 0.000000
									}
								}
							}
						}
					}
				}
			}
		}
	}
}
MOTION
Frames: 6
Frame Time: 0.016667
10.902040 16.131720 -7.081410 -5.977743 10.334738 -0.905623 -15.045751 11.745638 4.369112 18.355368 -6.323378 -27.737342 -21.625682 13.722055 28.648000 0.428183 7.667611 1.681040 0.139060 0.199330 0.002100 18.478968 -8.809683 4.323280 -20.360306 3.225161 -39.480418 4.542011 -1.207472 -4.039197 -0.204450 -1.640487 3.516190 -0.050630 0.054450 -0.098510 -4.165468 -1.787275 -9.484880 10.646770 -11.785292 43.059306 -15.416851 -1.493821 17.435270 6.136335 -3.711639 -28.348465 -18.372601 0.932352 58.573053 5.235510 -12.247930 -11.946820 -22.276098 -38.934427 11.688647 -25.637869 -5.348303 -1.769683 10.584742 6.466742 -0.035133 -3.670462 2.567235 0.502390 -0.352070 0.255770 0.073690 10.138547 45.780860 16.404550 31.038970 10.430835 -3.922395 -13.796186 2.231630 -0.070785 2.827583 -1.043840 -0.047910 0.435230 0.098370 0.134510 
10.851680 16.202020 -7.070000 -6.371361 10.063266 -1.230030 -14.995374 11.883346 4.207000 18.555041 -5.692212 -26.252756 -20.593343 12.882052 26.939704 0.371643 7.277257 1.821693 0.123810 0.183450 -0.024370 18.485529 -9.021557 4.268039 -20.155803 3.404058 -38.481901 5.951794 -1.387912 -2.493335 -0.189975 -1.656156 3.517341 -0.065550 0.077900 -0.103280 -4.252801 -1.624229 -9.341526 11.323796 -11.891994 43.072647 -15.597135 -1.196594 17.348992 5.986388 -4.355207 -27.876798 -19.512100 1.270077 57.341265 6.645150 -12.599390 -12.209600 -21.988377 -38.093566 11.575839 -25.670107 -4.717549 -2.027291 11.347465 5.147298 -0.120740 -3.632371 2.621059 0.492980 -0.353510 0.243160 0.081230 10.437083 45.131506 16.898461 31.048035 8.500181 -4.577034 -14.199195 4.329945 -0.376621 2.773565 -1.060986 -0.046570 0.441110 0.104810 0.150940 
10.750490 16.298990 -7.029110 -6.735702 9.703659 -1.246340 -14.936772 12.071049 3.981248 18.936399 -4.767583 -24.159790 -19.067308 11.632079 24.053824 0.258582 6.714547 2.039095 0.052850 0.102990 -0.087660 18.488903 -9.316655 4.184373 -19.537590 3.690120 -37.393147 7.882513 -1.815494 0.165787 -0.141132 -1.711471 3.518942 -0.101480 0.139910 -0.121330 -4.346584 -1.401778 -9.146871 11.801591 -11.728976 42.257150 -15.734127 -1.043870 16.536696 5.689704 -5.211463 -26.309694 -20.192930 1.124372 54.947582 7.293510 -12.805570 -11.814820 -21.165984 -35.945171 11.422424 -26.294368 -3.421683 -2.312265 12.229824 3.179637 -0.254833 -3.602212 2.661396 0.478960 -0.325740 0.193420 0.077790 10.472016 43.195281 17.330349 30.967655 6.587054 -4.403440 -12.759433 5.907996 -0.378090 2.711068 -1.003939 -0.084610 0.466650 0.146480 0.159620 
10.618470 16.420680 -6.989240 -6.969355 9.354123 -1.803880 -14.891825 12.358178 3.717215 19.139374 -3.739559 -21.209856 -17.069619 10.055053 20.241989 0.115810 6.016397 2.291092 0.004360 0.031200 -0.104810 18.450914 -9.677194 4.058480 -18.629506 3.910746 -35.359090 9.809209 -2.437431 3.091855 -0.125493 -1.839656 3.473129 -0.135650 0.158330 -0.112890 -4.365210 -1.242092 -8.935647 11.580335 -11.181732 42.481012 -15.561580 -0.753104 15.898748 5.412330 -5.299720 -24.984612 -19.045228 0.277939 53.179139 7.563900 -12.551610 -12.545550 -19.914147 -33.904204 11.367243 -26.098526 -2.004876 -2.409008 11.984448 1.009736 -0.438820 -3.576213 2.663073 0.498360 -0.314270 0.176870 0.049820 9.809052 41.125715 17.679347 30.790491 4.637517 -4.364349 -11.199667 7.591720 -0.346294 2.643197 -0.940717 -0.109920 0.468260 0.189130 0.141110 
10.461640 16.540680 -6.933520 -6.824297 8.997116 -2.198523 -14.870768 12.600205 3.545485 19.232562 -2.797139 -18.056427 -15.573190 8.590441 15.622991 0.050255 5.378768 2.540090 -0.029630 -0.026740 -0.105270 18.397611 -9.987343 3.910697 -17.539634 4.045170 -33.319707 11.434521 -3.208326 6.332497 -0.122362 -2.035831 3.408959 -0.176190 0.147780 -0.106650 -4.322275 -1.152554 -8.789127 10.552971 -10.070206 42.686868 -14.886765 -0.354975 14.699746 4.910600 -4.975648 -24.019108 -17.266435 -0.796614 51.893860 7.524580 -12.255290 -12.228120 -18.559917 -31.874026 11.438953 -25.477602 -0.244762 -2.392679 10.126945 -1.890912 -0.561594 -3.510310 2.670237 0.506980 -0.311960 0.167510 0.028670 9.393197 38.905828 18.020712 30.680352 2.400843 -4.162039 -8.806290 8.771295 -0.165185 2.613370 -0.892129 -0.115790 0.433580 0.200090 0.121650 
10.296370 16.654650 -6.885430 -6.434448 9.210723 -2.250780 -14.876294 12.738984 3.478301 19.004533 -2.244562 -15.948641 -14.177099 7.315630 11.388489 -0.007010 4.918910 2.752617 -0.122250 -0.148320 -0.165220 18.349156 -10.194760 3.753227 -16.652949 3.994287 -31.236859 13.016150 -4.089833 9.294357 -0.107641 -2.337653 3.331880 -0.239180 0.192240 -0.123320 -4.254802 -1.156042 -8.693070 9.184112 -9.205837 42.896668 -13.714024 -0.502797 13.060433 4.160120 -5.008251 -22.938076 -16.310711 -2.056996 49.768426 8.159900 -12.830080 -11.880970 -16.547386 -29.484471 11.388170 -25.718529 1.361955 -2.461994 7.807314 -4.379411 -0.611423 -3.485741 2.624461 0.516710 -0.289810 0.119530 0.006180 8.826426 36.353276 18.259013 30.348658 -0.125141 -4.352287 -6.553381 10.122120 -0.029732 2.574337 -0.815016 -0.162480 0.441860 0.253820 0.109510 
